PathFileType	4	(X/Y/Z)	 2.8Hzlow3min.trc
DataRate	CameraRate	NumFrames	NumMarkers	Units	OrigDataRate	OrigDataStartFrame	OrigNumFrames
200	200	10	35	m	200	751	1000
Frame#	Time	C7			LSH			RSH			MAN			RASI			LASI			HIPR			HIPL			RPSI			LPSI			COX			RTHI1			RTHI2			RTHI3			RTHI4			RSHA1			RSHA2			RSHA3			RSHA4			RHEEL			RMET5			RMET1			RTOE			LTHI1			LTHI2			LTHI3			LTHI4			LSHA1			LSHA2			LSHA3			LSHA4			LHEEL			LMET5			LMET1			LTOE			
		X1	Y1	Z1	X2	Y2	Z2	X3	Y3	Z3	X4	Y4	Z4	X5	Y5	Z5	X6	Y6	Z6	X7	Y7	Z7	X8	Y8	Z8	X9	Y9	Z9	X10	Y10	Z10	X11	Y11	Z11	X12	Y12	Z12	X13	Y13	Z13	X14	Y14	Z14	X15	Y15	Z15	X16	Y16	Z16	X17	Y17	Z17	X18	Y18	Z18	X19	Y19	Z19	X20	Y20	Z20	X21	Y21	Z21	X22	Y22	Z22	X23	Y23	Z23	X24	Y24	Z24	X25	Y25	Z25	X26	Y26	Z26	X27	Y27	Z27	X28	Y28	Z28	X29	Y29	Z29	X30	Y30	Z30	X31	Y31	Z31	X32	Y32	Z32	X33	Y33	Z33	X34	Y34	Z34	X35	Y35	Z35	
751	3.7550	-0.309994	1.426069	-0.538716	-0.248999	1.424320	-0.714411	-0.238743	1.399718	-0.374245	-0.179799	1.377199	-0.545186	-0.146071	0.986721	-0.435492	-0.160480	0.982415	-0.662740	-0.206690	1.036738	-0.405600	-0.217266	1.050708	-0.685081	-0.305688	1.020994	-0.489009	-0.311255	1.022128	-0.589778	-0.309677	1.031484	-0.537062	-0.230653	0.783781	-0.370822	-0.208539	0.728615	-0.372614	-0.147684	0.751150	-0.379321	-0.163673	0.810278	-0.379011	-0.269726	0.389999	-0.374188	-0.289073	0.351746	-0.380951	-0.232702	0.332970	-0.394252	-0.218614	0.370488	-0.391668	-0.387421	0.130966	-0.438056	-0.259213	0.032589	-0.401005	-0.236271	0.038045	-0.478690	-0.212212	0.029308	-0.474273	-0.247144	0.792514	-0.720876	-0.228382	0.733699	-0.720160	-0.165537	0.748218	-0.718031	-0.175122	0.807639	-0.718608	-0.303273	0.373277	-0.701308	-0.317098	0.335080	-0.696580	-0.257283	0.318782	-0.708127	-0.251080	0.362270	-0.711273	-0.386726	0.124054	-0.651811	-0.264759	0.038701	-0.707808	-0.222959	0.040770	-0.646765	-0.203492	0.030965	-0.651144	
752	3.7600	-0.310003	1.428463	-0.538958	-0.248979	1.426883	-0.714389	-0.238922	1.402615	-0.374863	-0.180082	1.380041	-0.545326	-0.145825	0.989070	-0.435567	-0.159969	0.984628	-0.662649	-0.206275	1.039389	-0.405894	-0.216341	1.053494	-0.684997	-0.305030	1.023771	-0.489234	-0.310491	1.024909	-0.590031	-0.309088	1.034218	-0.537291	-0.230837	0.786145	-0.370688	-0.208768	0.730940	-0.372328	-0.147837	0.753407	-0.378618	-0.163768	0.812546	-0.378552	-0.269582	0.391991	-0.373988	-0.288730	0.353640	-0.380606	-0.232253	0.335101	-0.393659	-0.218320	0.372766	-0.391113	-0.385810	0.132720	-0.437314	-0.258550	0.033224	-0.401349	-0.235762	0.038533	-0.478215	-0.211754	0.029574	-0.473566	-0.247325	0.795425	-0.720864	-0.228814	0.736503	-0.720353	-0.165903	0.750761	-0.718453	-0.175252	0.810220	-0.718872	-0.303028	0.374810	-0.701655	-0.316683	0.336571	-0.696977	-0.256757	0.320575	-0.708359	-0.250762	0.364072	-0.711495	-0.385716	0.125538	-0.652189	-0.263970	0.039652	-0.707504	-0.222461	0.041633	-0.646909	-0.203141	0.031785	-0.651558	
753	3.7650	-0.309989	1.430628	-0.539194	-0.248966	1.429217	-0.714380	-0.239078	1.405282	-0.375423	-0.180407	1.382673	-0.545464	-0.145625	0.991188	-0.435651	-0.159498	0.986589	-0.662553	-0.205888	1.041806	-0.406166	-0.215399	1.055973	-0.684941	-0.304410	1.026391	-0.489482	-0.309753	1.027515	-0.590332	-0.308525	1.036795	-0.537552	-0.231048	0.788265	-0.370616	-0.209009	0.733031	-0.372086	-0.148025	0.755454	-0.378019	-0.163909	0.814603	-0.378087	-0.269299	0.393723	-0.373886	-0.288283	0.355311	-0.380361	-0.231737	0.337006	-0.393169	-0.217944	0.374777	-0.390664	-0.384296	0.134241	-0.436619	-0.257858	0.033969	-0.401735	-0.235244	0.039059	-0.477696	-0.211259	0.029870	-0.472756	-0.247525	0.798057	-0.720784	-0.229250	0.739062	-0.720530	-0.166278	0.753070	-0.718874	-0.175386	0.812546	-0.719075	-0.302695	0.376166	-0.702012	-0.316215	0.337897	-0.697389	-0.256182	0.322132	-0.708545	-0.250355	0.365651	-0.711681	-0.384863	0.126835	-0.652508	-0.263175	0.040672	-0.707286	-0.221855	0.042716	-0.647069	-0.202628	0.032846	-0.651913	
754	3.7700	-0.309950	1.432549	-0.539427	-0.248966	1.431318	-0.714385	-0.239215	1.407705	-0.375928	-0.180693	1.385051	-0.545608	-0.145468	0.993060	-0.435747	-0.159070	0.988295	-0.662450	-0.205531	1.043990	-0.406411	-0.214459	1.058139	-0.684905	-0.303836	1.028834	-0.489743	-0.309048	1.029932	-0.590680	-0.307997	1.039205	-0.537828	-0.231270	0.790134	-0.370598	-0.209246	0.734877	-0.371905	-0.148214	0.757274	-0.377472	-0.164081	0.816432	-0.377633	-0.268842	0.395177	-0.373890	-0.287704	0.356736	-0.380222	-0.231164	0.338679	-0.392776	-0.217481	0.376513	-0.390316	-0.382911	0.135539	-0.435986	-0.257141	0.034832	-0.402126	-0.234689	0.039616	-0.477172	-0.210742	0.030186	-0.471881	-0.247733	0.800418	-0.720696	-0.229662	0.741355	-0.720684	-0.166633	0.755135	-0.719291	-0.175523	0.814615	-0.719251	-0.302302	0.377400	-0.702426	-0.315715	0.339067	-0.697804	-0.255586	0.323481	-0.708700	-0.249885	0.367015	-0.711843	-0.384157	0.127939	-0.652794	-0.262346	0.041764	-0.707139	-0.221145	0.043987	-0.647194	-0.201954	0.034122	-0.652146	
755	3.7750	-0.309888	1.434215	-0.539653	-0.248977	1.433175	-0.714404	-0.239329	1.409872	-0.376378	-0.180911	1.387150	-0.545762	-0.145358	0.994678	-0.435853	-0.158688	0.989748	-0.662342	-0.205223	1.045921	-0.406624	-0.213545	1.059993	-0.684885	-0.303306	1.031092	-0.490023	-0.308381	1.032151	-0.591063	-0.307507	1.041431	-0.538115	-0.231489	0.791744	-0.370620	-0.209462	0.736466	-0.371760	-0.148392	0.758865	-0.376956	-0.164265	0.818025	-0.377207	-0.268216	0.396364	-0.374020	-0.287066	0.357986	-0.380044	-0.230529	0.340109	-0.392481	-0.216934	0.377968	-0.390062	-0.381724	0.136637	-0.435383	-0.256396	0.035807	-0.402476	-0.234091	0.040218	-0.476660	-0.210207	0.030543	-0.470964	-0.247902	0.802458	-0.720554	-0.230021	0.743360	-0.720813	-0.166943	0.756945	-0.719703	-0.175644	0.816423	-0.719406	-0.301863	0.378485	-0.702838	-0.315208	0.340108	-0.698199	-0.254994	0.324632	-0.708821	-0.249373	0.368180	-0.711982	-0.383582	0.128847	-0.653048	-0.261468	0.042903	-0.707029	-0.220345	0.045399	-0.647244	-0.201144	0.035555	-0.652208	
756	3.7800	-0.309802	1.435618	-0.539872	-0.248989	1.434778	-0.714436	-0.239417	1.411778	-0.376771	-0.181075	1.388971	-0.545922	-0.145294	0.996033	-0.435966	-0.158360	0.990953	-0.662233	-0.204960	1.047594	-0.406805	-0.212678	1.061535	-0.684878	-0.302830	1.033155	-0.490310	-0.307765	1.034159	-0.591476	-0.307054	1.043461	-0.538412	-0.231688	0.793076	-0.370670	-0.209643	0.737793	-0.371659	-0.148544	0.760223	-0.376501	-0.164447	0.819379	-0.376820	-0.267478	0.397344	-0.374127	-0.286389	0.359061	-0.379809	-0.229830	0.341279	-0.392291	-0.216306	0.379147	-0.389934	-0.380765	0.137540	-0.434826	-0.255613	0.036897	-0.402746	-0.233401	0.040881	-0.476170	-0.209620	0.030985	-0.470018	-0.248015	0.804159	-0.720363	-0.230306	0.745049	-0.720917	-0.167184	0.758482	-0.720096	-0.175737	0.817965	-0.719554	-0.301391	0.379401	-0.703183	-0.314708	0.341019	-0.698561	-0.254431	0.325592	-0.708913	-0.248847	0.369155	-0.712101	-0.383120	0.129567	-0.653280	-0.260540	0.044056	-0.706914	-0.219495	0.046871	-0.647186	-0.200241	0.037054	-0.652085	
757	3.7850	-0.309697	1.436751	-0.540087	-0.248991	1.436121	-0.714481	-0.239480	1.413405	-0.377120	-0.181195	1.390507	-0.546087	-0.145274	0.997130	-0.436087	-0.158081	0.991912	-0.662119	-0.204744	1.049005	-0.406954	-0.211875	1.062769	-0.684878	-0.302415	1.034998	-0.490594	-0.307207	1.035940	-0.591863	-0.306648	1.045276	-0.538706	-0.231856	0.794117	-0.370735	-0.209776	0.738850	-0.371602	-0.148677	0.761335	-0.376137	-0.164611	0.820488	-0.376485	-0.266664	0.398131	-0.374083	-0.285680	0.359959	-0.379461	-0.229073	0.342199	-0.392205	-0.215598	0.380047	-0.389915	-0.380003	0.138197	-0.434372	-0.254782	0.038089	-0.402888	-0.232581	0.041639	-0.475679	-0.208937	0.031551	-0.469040	-0.248038	0.805505	-0.720111	-0.230492	0.746411	-0.720999	-0.167339	0.759732	-0.720462	-0.175784	0.819214	-0.719672	-0.300908	0.380193	-0.703485	-0.314229	0.341803	-0.698874	-0.253911	0.326373	-0.708986	-0.248325	0.369949	-0.712197	-0.382746	0.130129	-0.653525	-0.259587	0.045172	-0.706781	-0.218634	0.048325	-0.647024	-0.199309	0.038528	-0.651807	
758	3.7900	-0.309574	1.437614	-0.540299	-0.248960	1.437194	-0.714538	-0.239517	1.414733	-0.377456	-0.181263	1.391759	-0.546249	-0.145297	0.997968	-0.436211	-0.157853	0.992635	-0.662006	-0.204583	1.050156	-0.407069	-0.211155	1.063710	-0.684882	-0.302057	1.036600	-0.490867	-0.306714	1.037487	-0.592216	-0.306296	1.046857	-0.538985	-0.231982	0.794880	-0.370804	-0.209842	0.739637	-0.371584	-0.148746	0.762208	-0.375777	-0.164744	0.821340	-0.376218	-0.265825	0.398797	-0.373854	-0.284951	0.360712	-0.378994	-0.228263	0.342874	-0.392219	-0.214803	0.380692	-0.389997	-0.379484	0.138669	-0.433989	-0.253868	0.039370	-0.402874	-0.231601	0.042506	-0.475160	-0.208093	0.032285	-0.468035	-0.247991	0.806524	-0.719873	-0.230561	0.747436	-0.721053	-0.167390	0.760690	-0.720794	-0.175775	0.820177	-0.719782	-0.300431	0.380855	-0.703732	-0.313783	0.342463	-0.699130	-0.253439	0.327006	-0.709043	-0.247825	0.370577	-0.712270	-0.382443	0.130525	-0.653772	-0.258646	0.046195	-0.706609	-0.217815	0.049675	-0.646775	-0.198409	0.039900	-0.651422	
759	3.7950	-0.309434	1.438210	-0.540512	-0.248877	1.437985	-0.714607	-0.239523	1.415762	-0.377769	-0.181282	1.392715	-0.546409	-0.145365	0.998551	-0.436335	-0.157672	0.993122	-0.661895	-0.204480	1.051035	-0.407150	-0.210528	1.064367	-0.684890	-0.301759	1.037944	-0.491120	-0.306293	1.038787	-0.592519	-0.305996	1.048186	-0.539252	-0.232057	0.795359	-0.370865	-0.209842	0.740153	-0.371603	-0.148775	0.762832	-0.375549	-0.164840	0.821944	-0.376030	-0.265003	0.399370	-0.373395	-0.284241	0.361363	-0.378340	-0.227414	0.343309	-0.392337	-0.213940	0.381098	-0.390163	-0.379160	0.138932	-0.433705	-0.252853	0.040716	-0.402682	-0.230434	0.043483	-0.474577	-0.207035	0.033212	-0.466999	-0.247865	0.807184	-0.719621	-0.230506	0.748113	-0.721084	-0.167328	0.761345	-0.721078	-0.175693	0.820840	-0.719865	-0.299967	0.381366	-0.703891	-0.313372	0.343004	-0.699327	-0.253019	0.327480	-0.709086	-0.247353	0.371047	-0.712313	-0.382203	0.130763	-0.654004	-0.257760	0.047073	-0.706390	-0.217068	0.050876	-0.646478	-0.197579	0.041110	-0.650976	
760	3.8000	-0.309276	1.438547	-0.540725	-0.248734	1.438495	-0.714691	-0.239497	1.416496	-0.378057	-0.181250	1.393369	-0.546566	-0.145479	0.998880	-0.436452	-0.157542	0.993375	-0.661787	-0.204421	1.051657	-0.407200	-0.210010	1.064743	-0.684903	-0.301527	1.039016	-0.491335	-0.305946	1.039825	-0.592775	-0.305749	1.049251	-0.539486	-0.232075	0.795565	-0.370906	-0.209761	0.740413	-0.371661	-0.148738	0.763213	-0.375458	-0.164896	0.822295	-0.375932	-0.264213	0.399845	-0.372711	-0.283419	0.361772	-0.377831	-0.226549	0.343516	-0.392549	-0.213015	0.381287	-0.390410	-0.378888	0.138893	-0.433627	-0.251716	0.042092	-0.402307	-0.229058	0.044539	-0.473909	-0.205729	0.034309	-0.465939	-0.247670	0.807497	-0.719387	-0.230321	0.748442	-0.721090	-0.167146	0.761701	-0.721300	-0.175537	0.821198	-0.719919	-0.299521	0.381743	-0.703983	-0.312993	0.343403	-0.699475	-0.252645	0.327801	-0.709122	-0.246915	0.371358	-0.712330	-0.382024	0.130848	-0.654223	-0.256959	0.047774	-0.706134	-0.216412	0.051891	-0.646150	-0.196845	0.042133	-0.650512	
